<?xml version="1.0" ?><!DOCTYPE svg  PUBLIC '-//W3C//DTD SVG 1.0//EN'  'http://www.w3.org/TR/2001/REC-SVG-20010904/DTD/svg10.dtd'><svg enable-background="new 0 0 32 20" height="20" overflow="visible" viewBox="0 0 32 20" width="32" xml:space="preserve" xmlns="http://www.w3.org/2000/svg" xmlns:xlink="http://www.w3.org/1999/xlink"><g><g id="AMEX"><g id="AMEX_x5F_flat"><rect fill="#5FCCFF" height="20" id="BG" width="32"/><path d="M7.673,9.347h1.378L8.36,7.667L7.673,9.347z M27.184,11.654l-0.279-0.303        l-0.02-0.021l-0.02-0.021l-0.299-0.324l-0.273-0.297l-1.508-1.635l0.502-0.541V8.506l1.436-1.562h0.021l0.774-0.834h-3.58        L23.111,7.01l-0.775-0.899h-7.912l-0.66,1.521l-0.671-1.521h-3.085v0.696L9.666,6.111h-2.63L6.981,6.237L6.976,6.23        L6.534,7.26l-0.72,1.647v0.03L4.5,12.001l1.314-0.003h1.725l0.389-0.94h0.87l0.387,0.94h3.393v-0.718l0.304,0.721h1.759        l0.302-0.729v0.727h2.105V12H17.5v-0.002h0.143v-0.001h4.586l0.859-0.915l0.809,0.915L26.99,12h0.51L27.184,11.654        L27.184,11.654z M16.708,11.167h-1.033l-0.006-3.302l-1.462,3.302h-0.885l-1.47-3.309v3.309H9.801l-0.386-0.941H7.313        l-0.39,0.941H5.827l1.804-4.221h1.501l1.715,3.998V6.947h1.649l1.318,2.865l1.214-2.865h1.68V11.167z M24.334,11.167        l-1.242-1.396l-1.291,1.396h-3.996V6.945h4.059l1.24,1.383l1.283-1.383h1.326l-0.426,0.456L23.74,9.064l1.879,2.104H24.334z         M18.809,7.82v0.766h2.215v0.861h-2.215v0.841h2.48l1.15-1.238L21.336,7.82H18.809z" fill="#FFFFFF" id="LOGO"/></g></g></g></svg>