<svg width="308" height="136" viewBox="0 0 308 136" fill="none" xmlns="http://www.w3.org/2000/svg">
<g filter="url(#filter0_d_724_80)">
<path d="M57.6361 54.8121C56.5919 55.0266 55.6116 55.4803 54.7722 56.1374C53.9329 56.7945 53.2573 57.6373 52.7985 58.5996C52.3397 59.5618 52.1102 60.6173 52.128 61.6831C52.1458 62.749 52.4105 63.7962 52.9012 64.7426C53.392 65.6889 54.0954 66.5086 54.9563 67.1373C55.8171 67.766 56.812 68.1866 57.8628 68.366C58.9136 68.5455 59.9917 68.4789 61.0125 68.1715C62.0332 67.8641 62.9688 67.3243 63.7457 66.5944C60.7983 67.2021 57.6866 65.819 56.2329 63.0156C54.7787 60.2111 55.4402 56.8715 57.6361 54.8121Z" fill="white"/>
<path d="M186.506 64.7607L187.367 66.7628L185.365 65.9017C185.817 65.5787 186.205 65.1912 186.506 64.7607ZM179.1 59.5939L178.239 57.5917L180.22 58.4529C179.789 58.7758 179.402 59.1633 179.1 59.5939ZM187.238 61.3807L189.262 62.1773L187.238 62.9738C187.303 62.7155 187.324 62.4571 187.324 62.1773C187.324 61.8974 187.303 61.6391 187.238 61.3807ZM178.368 62.9738L176.345 62.1773L178.368 61.3807C178.325 61.6391 178.282 61.9189 178.282 62.1773C178.282 62.4571 178.304 62.7155 178.368 62.9738ZM185.387 58.4744L187.389 57.6132L186.528 59.6154C186.205 59.1633 185.817 58.7758 185.387 58.4744ZM180.22 65.8801L178.218 66.7413L179.079 64.7391C179.402 65.1912 179.789 65.5787 180.22 65.8801ZM182.007 57.7424L182.803 55.7188L183.6 57.7424C183.341 57.6994 183.062 57.6563 182.803 57.6563C182.545 57.6563 182.265 57.6778 182.007 57.7424ZM183.6 66.6121L182.803 68.6358L182.007 66.6121C182.265 66.6767 182.523 66.6982 182.803 66.6982C183.083 66.6982 183.341 66.6767 183.6 66.6121Z" fill="white"/>
<path d="M182.804 66.2667C180.545 66.2667 178.714 64.4354 178.714 62.1763C178.714 59.9173 180.545 58.0859 182.804 58.0859C185.063 58.0859 186.895 59.9173 186.895 62.1763C186.895 64.4354 185.063 66.2667 182.804 66.2667Z" fill="white"/>
<path d="M185.278 68.1455L183.771 66.5954C184.309 66.4878 184.804 66.2725 185.256 65.9711L185.278 68.1455ZM180.326 56.2188L181.833 57.7688C181.295 57.8764 180.8 58.0917 180.348 58.3931L180.326 56.2188ZM188.766 64.6579L186.591 64.6363C186.893 64.1843 187.108 63.6891 187.216 63.1509L188.766 64.6579ZM176.839 59.7063L179.013 59.7279C178.733 60.18 178.518 60.6751 178.389 61.2133L176.839 59.7063ZM188.766 59.7063L187.216 61.2133C187.108 60.6751 186.893 60.18 186.591 59.7279L188.766 59.7063ZM176.839 64.6579L178.389 63.1509C178.497 63.6891 178.712 64.1843 179.013 64.6363L176.839 64.6579ZM185.278 56.2188L185.256 58.3931C184.804 58.1132 184.309 57.898 183.771 57.7688L185.278 56.2188ZM180.326 68.1455L180.348 65.9711C180.8 66.2725 181.295 66.4878 181.833 66.5954L180.326 68.1455Z" fill="white"/>
<path d="M297.541 55.7188L303.134 65.4065H291.947L297.541 55.7188Z" fill="white"/>
<path d="M297.541 68.6406L291.948 58.9529H303.135L297.541 68.6406Z" fill="white"/>
<path d="M299.389 58.948L297.544 55.7188L295.698 58.948H292.008L293.853 62.1773L292.008 65.4065H295.698L297.544 68.6358L299.389 65.4065H303.08L301.234 62.1773L303.08 58.948H299.389Z" fill="white"/>
<path fill-rule="evenodd" clip-rule="evenodd" d="M6.19922 74V118.07H13.6962V104.9H26.1573L35.2752 118.07H44.0892L33.6542 103.684C45.001 100.341 49.6612 78.559 29.8045 74H6.19922ZM13.6962 98.7197V80.2812H27.2717C39.4289 82.51 36.9975 97.6052 27.2717 98.7197H13.6962Z" fill="white"/>
<path d="M53.3084 74V118.07H61.008V74H53.3084Z" fill="white"/>
<path fill-rule="evenodd" clip-rule="evenodd" d="M246.916 73.7969V117.867H254.413V104.696H266.874L275.992 117.867H284.806L274.371 103.481C285.718 100.137 290.378 78.3558 270.521 73.7969H246.916ZM254.413 98.5165V80.0781H267.988C280.145 82.3069 277.714 97.4021 267.988 98.5165H254.413Z" fill="white"/>
<path d="M294.531 73.7969V117.867H302.231V73.7969H294.531Z" fill="white"/>
<path fill-rule="evenodd" clip-rule="evenodd" d="M199.097 73.7969V117.867H206.594V104.696H219.056L228.173 117.867H236.987L226.552 103.481C237.899 100.137 242.559 78.3558 222.703 73.7969H199.097ZM206.594 98.5165V80.0781H220.17C232.327 82.3069 229.896 97.4021 220.17 98.5165H206.594Z" fill="white"/>
<path d="M178.633 73.7969V117.867H186.332V73.7969H178.633Z" fill="white"/>
<path fill-rule="evenodd" clip-rule="evenodd" d="M92.9234 72.7891C79.3478 73.4982 70.0274 83.5279 70.0273 94.672C70.0273 110.78 81.8804 117.669 92.1128 118.784C95.1927 124.376 101.535 127.395 108.728 128.003C115.374 128.003 119.298 124.66 120.581 122.938L116.934 118.784C111.26 123.545 105.486 122.938 101.231 118.176C117.947 112.604 118.859 102.372 117.947 91.734C116.225 80.5899 107.411 72.7891 92.9234 72.7891ZM110.349 97.7113C109.707 102.304 105.628 111.53 94.443 111.692C84.4133 111.692 78.2334 105.208 78.2334 94.1655C78.8412 85.5541 85.4264 79.6781 94.443 79.6781C107.613 80.286 111.269 91.1262 110.349 97.7113Z" fill="white"/>
<path d="M127.166 73.9035H134.967V88.6127C134.967 97.7423 134.798 110.406 143.832 111.728C144.677 111.852 145.543 111.895 146.415 111.895C148.947 111.895 151.526 111.591 153.702 110.363C159.368 107.167 158.775 99.0954 158.775 92.5896V73.9035H165.968V102.878C165.968 115.035 154.013 118.784 146.415 118.784C138.817 118.784 127.166 114.124 127.166 102.878V73.9035Z" fill="white"/>
<path d="M32.4265 0H37.6718V28.6803C37.6718 31.6414 36.9738 34.2852 35.5779 36.6118C34.1961 38.9242 32.2432 40.7502 29.7192 42.0898C27.1952 43.4152 24.2341 44.0779 20.8359 44.0779C17.4377 44.0779 14.4766 43.4152 11.9526 42.0898C9.42866 40.7502 7.46871 38.9242 6.07276 36.6118C4.69092 34.2852 4 31.6414 4 28.6803V0H9.24536V28.2573C9.24536 30.3723 9.71067 32.2547 10.6413 33.9045C11.5719 35.5401 12.8974 36.8303 14.6176 37.775C16.352 38.7057 18.4247 39.171 20.8359 39.171C23.2471 39.171 25.3198 38.7057 27.0542 37.775C28.7885 36.8303 30.114 35.5401 31.0305 33.9045C31.9611 32.2547 32.4265 30.3723 32.4265 28.2573V0Z" fill="white"/>
<path d="M73.4598 18.1049L68.9758 19.374C68.6938 18.6267 68.2779 17.9005 67.7279 17.1955C67.1921 16.4763 66.4589 15.8841 65.5283 15.4188C64.5976 14.9535 63.4062 14.7208 61.9538 14.7208C59.9656 14.7208 58.3088 15.1791 56.9834 16.0956C55.6721 16.9981 55.0164 18.1472 55.0164 19.5432C55.0164 20.784 55.4676 21.764 56.37 22.4831C57.2725 23.2022 58.6825 23.8015 60.6002 24.2809L65.4225 25.4654C68.3272 26.1704 70.4916 27.2491 71.9158 28.7014C73.3399 30.1397 74.052 31.9939 74.052 34.264C74.052 36.1253 73.5162 37.7891 72.4445 39.2556C71.387 40.722 69.9064 41.8783 68.0029 42.7243C66.0993 43.5703 63.8856 43.9933 61.3616 43.9933C58.048 43.9933 55.3055 43.2742 53.134 41.836C50.9625 40.3977 49.5877 38.2968 49.0096 35.5331L53.7474 34.3486C54.1986 36.0971 55.0517 37.4084 56.3066 38.2827C57.5756 39.1569 59.2324 39.594 61.277 39.594C63.6036 39.594 65.4507 39.1005 66.8185 38.1134C68.2003 37.1123 68.8912 35.9138 68.8912 34.5178C68.8912 33.3898 68.4964 32.4451 67.7068 31.6837C66.9172 30.9081 65.7045 30.33 64.0689 29.9493L58.6543 28.6803C55.6791 27.9752 53.4935 26.8825 52.0976 25.4019C50.7158 23.9073 50.0248 22.039 50.0248 19.797C50.0248 17.9639 50.5395 16.3424 51.5688 14.9324C52.6123 13.5223 54.0294 12.4154 55.8201 11.6117C57.625 10.808 59.6695 10.4061 61.9538 10.4061C65.1687 10.4061 67.6927 11.1111 69.5257 12.5212C71.3729 13.9312 72.6842 15.7925 73.4598 18.1049Z" fill="white"/>
<path d="M98.1648 43.9933C95.0345 43.9933 92.3342 43.3024 90.0641 41.9206C87.808 40.5246 86.0666 38.5788 84.8399 36.083C83.6272 33.5731 83.0209 30.6543 83.0209 27.3266C83.0209 23.9989 83.6272 21.066 84.8399 18.528C86.0666 15.9758 87.7727 13.9876 89.9583 12.5635C92.158 11.1252 94.7243 10.4061 97.6571 10.4061C99.3492 10.4061 101.02 10.6881 102.67 11.2521C104.32 11.8162 105.821 12.7327 107.175 14.0017C108.529 15.2567 109.607 16.9205 110.411 18.9933C111.215 21.066 111.617 23.6182 111.617 26.6498V28.7649H86.5742V24.4501H106.54C106.54 22.6171 106.174 20.9814 105.441 19.5432C104.721 18.1049 103.692 16.9699 102.353 16.1379C101.027 15.306 99.462 14.89 97.6571 14.89C95.669 14.89 93.9487 15.3836 92.4964 16.3706C91.0581 17.3435 89.9513 18.6126 89.1757 20.1777C88.4002 21.7429 88.0125 23.4208 88.0125 25.2116V28.088C88.0125 30.5415 88.4355 32.6213 89.2815 34.3275C90.1416 36.0195 91.3331 37.3097 92.8559 38.1981C94.3788 39.0723 96.1484 39.5094 98.1648 39.5094C99.4761 39.5094 100.661 39.3261 101.718 38.9595C102.79 38.5788 103.713 38.0147 104.489 37.2674C105.264 36.506 105.864 35.5613 106.287 34.4332L111.109 35.7869C110.601 37.4225 109.748 38.8608 108.55 40.1016C107.351 41.3283 105.871 42.2872 104.108 42.9781C102.346 43.6549 100.364 43.9933 98.1648 43.9933Z" fill="white"/>
</g>
<defs>
<filter id="filter0_d_724_80" x="0" y="0" width="307.133" height="136" filterUnits="userSpaceOnUse" color-interpolation-filters="sRGB">
<feFlood flood-opacity="0" result="BackgroundImageFix"/>
<feColorMatrix in="SourceAlpha" type="matrix" values="0 0 0 0 0 0 0 0 0 0 0 0 0 0 0 0 0 0 127 0" result="hardAlpha"/>
<feOffset dy="4"/>
<feGaussianBlur stdDeviation="2"/>
<feComposite in2="hardAlpha" operator="out"/>
<feColorMatrix type="matrix" values="0 0 0 0 0 0 0 0 0 0 0 0 0 0 0 0 0 0 0.25 0"/>
<feBlend mode="normal" in2="BackgroundImageFix" result="effect1_dropShadow_724_80"/>
<feBlend mode="normal" in="SourceGraphic" in2="effect1_dropShadow_724_80" result="shape"/>
</filter>
</defs>
</svg>
